<svg width="431" height="49" viewBox="0 0 431 49" fill="none" xmlns="http://www.w3.org/2000/svg">
<path d="M1 44.4736L14.8785 42.1864C17.7204 41.7181 20.6332 41.9385 23.3723 42.8293L37.9152 47.5588C41.7308 48.7997 45.8517 48.7301 49.6232 47.3612L54.6033 45.5537C56.572 44.8391 58.6502 44.4736 60.7445 44.4736H73.3227H93.0023H110.745C112.032 44.4736 113.317 44.6118 114.575 44.8859L120.777 46.2366C124.47 47.0408 128.323 46.6621 131.789 45.1542L145.28 39.2841C146.549 38.732 147.877 38.3281 149.239 38.0804L158.813 36.3379C163.604 35.4659 168.545 36.5727 172.506 39.4059L174.896 41.1148C177.95 43.2992 181.612 44.4736 185.367 44.4736H204.192H225.348H246.995L259.018 42.9775C266.318 42.0691 272.33 36.8102 274.202 29.6962L280.899 4.24771C281.612 1.54005 284.933 0.430091 286.847 2.47363V2.47363C288.498 4.23697 292.811 20.5344 295.467 31.0562C296.88 36.6559 300.833 41.2765 306.173 43.4766L311.249 45.5682C314.275 46.8149 317.584 47.213 320.819 46.7198L332.193 44.986C334.414 44.6474 336.679 44.7277 338.87 45.2227L346.88 47.0314C348.181 47.3253 349.511 47.4736 350.845 47.4736H373.437H391.641L414.272 44.4736H431" stroke="#875BCB"/>
</svg>
