<svg width="430" height="49" viewBox="0 0 430 49" fill="none" xmlns="http://www.w3.org/2000/svg">
<path d="M13.8785 41.1864L0 43.4736V48.4736H430V43.4736H413.272L390.641 46.4736H372.437H349.845C348.511 46.4736 347.181 46.3253 345.88 46.0314L337.87 44.2226C335.679 43.7277 333.414 43.6474 331.193 43.986L319.819 45.7198C316.584 46.213 313.275 45.8149 310.249 44.5682L305.173 42.4766C299.833 40.2765 295.88 35.6559 294.467 30.0562C291.811 19.5344 287.498 3.23697 285.847 1.47363C283.933 -0.569923 280.612 0.540049 279.899 3.24773L273.202 28.6962C271.33 35.8102 265.318 41.0691 258.018 41.9775L245.995 43.4736H224.348H203.192H184.367C180.612 43.4736 176.95 42.2992 173.896 40.1148L171.506 38.4059C167.545 35.5727 162.604 34.4659 157.813 35.3379L148.239 37.0804C146.877 37.3281 145.549 37.732 144.28 38.2841L130.789 44.1542C127.323 45.6621 123.47 46.0408 119.777 45.2366L113.575 43.8859C112.317 43.6118 111.032 43.4736 109.745 43.4736H92.0023H72.3227H59.7445C57.6502 43.4736 55.572 43.8391 53.6033 44.5537L48.6232 46.3612C44.8517 47.7301 40.7308 47.7997 36.9152 46.5588L22.3723 41.8293C19.6332 40.9385 16.7204 40.7181 13.8785 41.1864Z" fill="url(#paint0_linear_2143_110094)"/>
<defs>
<linearGradient id="paint0_linear_2143_110094" x1="215" y1="-1.52637" x2="215.508" y2="68.9735" gradientUnits="userSpaceOnUse">
<stop stop-color="#DDD1EF"/>
<stop offset="1" stop-color="#DDD1EF" stop-opacity="0"/>
</linearGradient>
</defs>
</svg>
