<svg width="32" height="26" viewBox="0 0 32 26" fill="none" xmlns="http://www.w3.org/2000/svg">
<path d="M12 2L13.3262 5.58401C14.5416 8.86864 17.1314 11.4584 20.416 12.6738L24 14L20.416 15.3262C17.1314 16.5416 14.5416 19.1314 13.3262 22.416L12 26L10.6738 22.416C9.45837 19.1314 6.86864 16.5416 3.58401 15.3262L0 14L3.58401 12.6738C6.86864 11.4584 9.45837 8.86864 10.6738 5.58401L12 2Z" fill="#EB4600" fill-opacity="0.7"/>
<path d="M28 0V0C28.6857 1.85316 30.1468 3.31427 32 4V4V4C30.1468 4.68573 28.6857 6.14684 28 8V8V8C27.3143 6.14684 25.8532 4.68573 24 4V4V4C25.8532 3.31427 27.3143 1.85316 28 0V0Z" fill="#EB4600" fill-opacity="0.3"/>
</svg>
