<svg width="109" height="26" viewBox="0 0 109 26" fill="none" xmlns="http://www.w3.org/2000/svg">
<g clip-path="url(#clip0_1972_139890)">
<path d="M2.12062 25.9268C1.0725 25.9268 0 25.1143 0 23.5543V19.9062C0 18.4599 0.9425 16.8105 2.18563 16.0793L7.28 13.0649L2.18563 10.0343C0.9425 9.29492 0.01625 7.65367 0.01625 6.20742V2.51055C0.01625 0.974922 1.08062 0.154297 2.12062 0.154297C2.5675 0.154297 3.03063 0.292422 3.4775 0.552422L14.9825 7.4018C15.7869 7.87305 16.25 8.61242 16.25 9.4168C16.25 10.2212 15.7869 10.9524 14.9906 11.4318L12.2363 13.0649L14.9906 14.698C15.7869 15.1774 16.25 15.9168 16.25 16.713C16.25 17.5093 15.7869 18.2487 14.9906 18.728L3.4775 25.5368C3.01438 25.7805 2.5675 25.9268 2.12062 25.9268ZM9.75 14.5112L3.46937 18.2324C2.99 18.5087 2.52687 19.3374 2.52687 19.8899V23.148L13.4225 16.6887L9.75 14.5112ZM2.535 2.92492V6.21555C2.535 6.76805 2.99813 7.58867 3.4775 7.87305L9.75 11.6024L13.4306 9.4168L2.535 2.92492Z" fill="#FE5000"/>
<path d="M24.7406 21.0757H21.6044V4.73633H24.7406V10.7651C25.2444 10.1638 26.3575 9.57883 27.56 9.57883C30.8181 9.57883 32.6706 12.2438 32.6706 15.4532C32.6706 18.6626 30.8425 21.3113 27.56 21.3113C26.3575 21.3113 25.2525 20.7263 24.7406 20.1251C24.7406 20.1251 24.7406 21.0757 24.7406 21.0757ZM24.7406 17.3057C25.0981 18.0938 25.9269 18.6138 26.845 18.6138C28.5187 18.6138 29.5344 17.2569 29.5344 15.4776C29.5344 13.6657 28.535 12.3088 26.845 12.3088C25.935 12.3088 25.0737 12.8613 24.7406 13.617V17.3057ZM46.3206 9.6032C48.6281 9.6032 50.0094 11.2201 50.0094 13.7551V21.0757H46.8894V14.3807C46.8894 13.162 46.3694 12.3657 45.2887 12.3657C44.4925 12.3657 43.7531 12.8695 43.55 13.8282V21.0757H40.4137V14.3807C40.4137 13.162 39.9181 12.3657 38.8294 12.3657C38.0331 12.3657 37.2775 12.8695 37.0581 13.8282V21.0757H33.9544V9.84695H37.0744V10.7732C37.6269 10.0663 38.6587 9.58695 39.9181 9.58695C41.2425 9.58695 42.2987 10.1882 42.9325 11.017C43.6637 10.2288 44.7362 9.6032 46.3206 9.6032ZM56.6637 9.6032C59.4831 9.6032 61.2625 11.2607 61.5875 13.6495H58.5244C58.3375 12.8045 57.6794 12.2682 56.6637 12.2682C55.2337 12.2682 54.3562 13.5763 54.3562 15.4857C54.3562 17.3626 55.2337 18.687 56.6637 18.687C57.6794 18.687 58.3375 18.1669 58.5244 17.3057H61.5875C61.2625 19.7188 59.4831 21.352 56.6637 21.352C53.4787 21.352 51.2606 18.9713 51.2606 15.4938C51.2444 11.9838 53.4625 9.6032 56.6637 9.6032Z" fill="white"/>
<path d="M68.3881 11.1563C69.1843 10.092 70.3137 9.60445 71.5081 9.60445C74.0431 9.60445 75.6762 11.2051 75.6762 14.3738V21.0526H72.5562V14.6988C72.5562 12.9276 71.8006 12.1313 70.5737 12.1313C69.2818 12.1313 68.3393 13.1632 68.3393 15.3001V21.0688H65.2356V4.70508H68.3556V11.1482H68.3881V11.1563V11.1563ZM88.4731 21.0445H91.5931V4.70508H88.4731V21.0445ZM93.1531 21.0445H96.2731V9.61258H93.1531V21.0445ZM93.1531 7.72758H96.2731V4.75383H93.1531V7.72758ZM108.566 21.0445H104.886L102.716 17.1688H102.667L100.498 21.0445H96.8175L100.742 15.1701L97.0612 9.60445H100.693L102.643 12.9601H102.692L104.642 9.60445H108.274L104.593 15.1701L108.566 21.0445ZM82.0462 11.9688H82.095C83.2 11.9688 84.0775 12.7651 84.3131 13.9351C84.3293 14.0082 84.3456 14.0732 84.3456 14.1545H79.625C79.6412 14.0813 79.6412 14.0163 79.6575 13.9351C79.9256 12.7813 80.86 11.9688 82.0462 11.9688ZM87.2625 13.6507C86.7425 11.0832 84.7275 9.5882 82.1275 9.5882C78.7393 9.5882 76.7731 12.1151 76.7731 15.3732C76.7731 18.8995 78.7393 21.3288 82.16 21.3288C85.0362 21.3288 86.775 19.6713 87.3112 17.2663H84.4025C84.0612 18.4851 83.2487 18.9726 82.0462 18.9726C80.7706 18.9726 79.5681 17.9407 79.5681 15.9582H87.3681C87.4493 14.8613 87.3681 14.2195 87.2625 13.6507Z" fill="#49A5E6"/>
</g>
<defs>
<clipPath id="clip0_1972_139890">
<rect width="108.875" height="26" fill="white"/>
</clipPath>
</defs>
</svg>
