<svg width="109" height="26" viewBox="0 0 109 26" fill="none" xmlns="http://www.w3.org/2000/svg">
<g clip-path="url(#clip0_1972_139840)">
<path d="M2.12062 25.9268C1.0725 25.9268 0 25.1143 0 23.5543V19.9062C0 18.4599 0.9425 16.8105 2.18563 16.0793L7.28 13.0649L2.18563 10.0343C0.9425 9.29492 0.01625 7.65367 0.01625 6.20742V2.51055C0.01625 0.974922 1.08062 0.154297 2.12062 0.154297C2.5675 0.154297 3.03063 0.292422 3.4775 0.552422L14.9825 7.4018C15.7869 7.87305 16.25 8.61242 16.25 9.4168C16.25 10.2212 15.7869 10.9524 14.9906 11.4318L12.2363 13.0649L14.9906 14.698C15.7869 15.1774 16.25 15.9168 16.25 16.713C16.25 17.5093 15.7869 18.2487 14.9906 18.728L3.4775 25.5368C3.01438 25.7805 2.5675 25.9268 2.12062 25.9268ZM9.75 14.5112L3.46937 18.2324C2.99 18.5087 2.52687 19.3374 2.52687 19.8899V23.148L13.4225 16.6887L9.75 14.5112ZM2.535 2.92492V6.21555C2.535 6.76805 2.99813 7.58867 3.4775 7.87305L9.75 11.6024L13.4306 9.4168L2.535 2.92492Z" fill="#FE5000"/>
<path d="M24.7407 21.0757H21.6045V4.73633H24.7407V10.7651C25.2445 10.1638 26.3576 9.57883 27.5601 9.57883C30.8182 9.57883 32.6707 12.2438 32.6707 15.4532C32.6707 18.6626 30.8426 21.3113 27.5601 21.3113C26.3576 21.3113 25.2526 20.7263 24.7407 20.1251C24.7407 20.1251 24.7407 21.0757 24.7407 21.0757ZM24.7407 17.3057C25.0982 18.0938 25.927 18.6138 26.8451 18.6138C28.5189 18.6138 29.5345 17.2569 29.5345 15.4776C29.5345 13.6657 28.5351 12.3088 26.8451 12.3088C25.9351 12.3088 25.0739 12.8613 24.7407 13.617V17.3057ZM46.3207 9.6032C48.6282 9.6032 50.0095 11.2201 50.0095 13.7551V21.0757H46.8895V14.3807C46.8895 13.162 46.3695 12.3657 45.2889 12.3657C44.4926 12.3657 43.7532 12.8695 43.5501 13.8282V21.0757H40.4139V14.3807C40.4139 13.162 39.9182 12.3657 38.8295 12.3657C38.0332 12.3657 37.2776 12.8695 37.0582 13.8282V21.0757H33.9545V9.84695H37.0745V10.7732C37.627 10.0663 38.6589 9.58695 39.9182 9.58695C41.2426 9.58695 42.2989 10.1882 42.9326 11.017C43.6639 10.2288 44.7364 9.6032 46.3207 9.6032ZM56.6639 9.6032C59.4832 9.6032 61.2626 11.2607 61.5876 13.6495H58.5245C58.3376 12.8045 57.6795 12.2682 56.6639 12.2682C55.2339 12.2682 54.3564 13.5763 54.3564 15.4857C54.3564 17.3626 55.2339 18.687 56.6639 18.687C57.6795 18.687 58.3376 18.1669 58.5245 17.3057H61.5876C61.2626 19.7188 59.4832 21.352 56.6639 21.352C53.4789 21.352 51.2607 18.9713 51.2607 15.4938C51.2445 11.9838 53.4626 9.6032 56.6639 9.6032Z" fill="white"/>
<path d="M68.3883 11.1563C69.1846 10.092 70.314 9.60445 71.5083 9.60445C74.0433 9.60445 75.6765 11.2051 75.6765 14.3738V21.0526H72.5565V14.6988C72.5565 12.9276 71.8008 12.1313 70.574 12.1313C69.2821 12.1313 68.3396 13.1632 68.3396 15.3001V21.0688H65.2358V4.70508H68.3558V11.1482H68.3883V11.1563V11.1563ZM88.4733 21.0445H91.5933V4.70508H88.4733V21.0445ZM93.1533 21.0445H96.2733V9.61258H93.1533V21.0445ZM93.1533 7.72758H96.2733V4.75383H93.1533V7.72758ZM108.566 21.0445H104.886L102.716 17.1688H102.668L100.498 21.0445H96.8177L100.742 15.1701L97.0615 9.60445H100.693L102.643 12.9601H102.692L104.642 9.60445H108.274L104.593 15.1701L108.566 21.0445ZM82.0465 11.9688H82.0952C83.2002 11.9688 84.0777 12.7651 84.3133 13.9351C84.3296 14.0082 84.3458 14.0732 84.3458 14.1545H79.6252C79.6415 14.0813 79.6415 14.0163 79.6577 13.9351C79.9258 12.7813 80.8602 11.9688 82.0465 11.9688ZM87.2627 13.6507C86.7427 11.0832 84.7277 9.5882 82.1277 9.5882C78.7396 9.5882 76.7733 12.1151 76.7733 15.3732C76.7733 18.8995 78.7396 21.3288 82.1602 21.3288C85.0365 21.3288 86.7752 19.6713 87.3115 17.2663H84.4027C84.0615 18.4851 83.249 18.9726 82.0465 18.9726C80.7708 18.9726 79.5683 17.9407 79.5683 15.9582H87.3683C87.4496 14.8613 87.3683 14.2195 87.2627 13.6507Z" fill="#49A5E6"/>
</g>
<defs>
<clipPath id="clip0_1972_139840">
<rect width="108.875" height="26" fill="white"/>
</clipPath>
</defs>
</svg>
